# xmcd
#
# Track frame offsets:
#	150
#	6198
#	29773
#	51223
#	85420
#	115565
#	134530
#	158913
#	185295
#	217910
#	238250
#	270138
#	297438
#	323313
#
# Disc length: 4666 seconds
#
# Revision: 1
# Processed by: cddbd v1.5.2PL0 Copyright (c) Steve Scherf et al.
# Submitted via: dBpowerAMP V4.0
#
DISCID=bc12380e
DTITLE=Bill Evans - The Best of
DYEAR=2004
DGENRE=Jazz
TTITLE0=Waltz for Debby - Solo
TTITLE1=Waltz for Debby - Quartet
TTITLE2=Our Delight
TTITLE3=Night and Day
TTITLE4=Peace Piece
TTITLE5=Woody'n You
TTITLE6=Blue in Green
TTITLE7=Nardis
TTITLE8=My Romance
TTITLE9=If You Could See Me Now
TTITLE10=You and the Night and the Music
TTITLE11=Time Remembered
TTITLE12=Everything Happens to Me
TTITLE13=Swedish Pastry
EXTD=
EXTT0=
EXTT1=
EXTT2=
EXTT3=
EXTT4=
EXTT5=
EXTT6=
EXTT7=
EXTT8=
EXTT9=
EXTT10=
EXTT11=
EXTT12=
EXTT13=
PLAYORDER=
